<svg width="40" height="41" viewBox="0 0 40 41" fill="none" xmlns="http://www.w3.org/2000/svg">
<path d="M40 20.4C40 9.35164 31.0484 0.400024 20 0.400024C8.95161 0.400023 -3.91287e-07 9.35164 -8.74228e-07 20.4C-1.35717e-06 31.4484 8.95161 40.4 20 40.4C31.0484 40.4 40 31.4484 40 20.4ZM11.7661 25.0049L16.9355 17.892C17.121 17.642 17.4113 17.4968 17.7177 17.4968L31.2903 17.4968C31.8226 17.4968 32.2581 17.9323 32.2581 18.4645L32.2581 22.3355C32.2581 22.8678 31.8226 23.3032 31.2903 23.3032L20.1855 23.3032L16.4597 28.4242C16.1452 28.8597 15.5403 28.9484 15.1048 28.6339L11.9758 26.3597C11.5484 26.0452 11.4516 25.4403 11.7661 25.0049Z" fill="white"/>
</svg>
